# xmcd
#
# Track frame offsets: 
#        150
#        31493
#        63570
#        111589
#        133590
#
# Disc length: 2201 seconds
#
# Revision: 5
# Processed by: cddbd v1.5.2PL0 Copyright (c) Steve Scherf et al.
# Submitted via: ExactAudioCopyFreeDBPlugin 1.0
#
DISCID=48089705
DTITLE=Joe Bonamassa - Tour De Force: The Borderline
DYEAR=2014
DGENRE=Blues
TTITLE0=The River
TTITLE1=Burning Hell
TTITLE2=Don't Burn Down That Bridge
TTITLE3=Story Of A Quarryman
TTITLE4=Are You Experienced?
EXTD=
EXTT0=
EXTT1=
EXTT2=
EXTT3=
EXTT4=
PLAYORDER=
